<?xml version="1.0" encoding="UTF-8"?>
<svg xmlns="http://www.w3.org/2000/svg" viewBox="0 0 860 780" width="860" height="780" font-family="'PingFang SC','Microsoft YaHei','Noto Sans SC',sans-serif">

<defs>
  <marker id="arr-blue" markerWidth="8" markerHeight="6" refX="8" refY="3" orient="auto"><polygon points="8 3, 0 0, 0 6" fill="#1e3a8a"/></marker>
  <marker id="arr-emerald" markerWidth="8" markerHeight="6" refX="8" refY="3" orient="auto"><polygon points="8 3, 0 0, 0 6" fill="#059669"/></marker>
  <marker id="arr-rose" markerWidth="8" markerHeight="6" refX="8" refY="3" orient="auto"><polygon points="8 3, 0 0, 0 6" fill="#e11d48"/></marker>
  <marker id="arr-slate" markerWidth="8" markerHeight="6" refX="8" refY="3" orient="auto"><polygon points="8 3, 0 0, 0 6" fill="#334155"/></marker>
  <filter id="shadow"><feDropShadow dx="0" dy="1" stdDeviation="2" flood-color="#000" flood-opacity="0.08"/></filter>
</defs>

<rect width="100%" height="100%" fill="#ffffff"/>

<text x="430" y="28" fill="#0f172a" font-size="14" font-weight="700" text-anchor="middle">SCCS OS ↔ Hermes Agent 调用关系全景</text>

<!-- ===== Layer Backgrounds ===== -->
<rect x="30" y="50" width="800" height="340" rx="6" fill="#eff6ff" stroke="#bfdbfe" stroke-width="1.5"/>
<text x="46" y="68" fill="#1e3a8a" font-size="11" font-weight="700">SCCS OS 层 — 编排与管控</text>

<rect x="30" y="405" width="800" height="195" rx="6" fill="#f0fdf4" stroke="#bbf7d0" stroke-width="1.5"/>
<text x="46" y="423" fill="#166534" font-size="11" font-weight="700">Hermes Agent 层 — 推理与执行底座</text>

<!-- ===== SCCS OS Components ===== -->

<!-- CLI -->
<rect x="60" y="80" width="150" height="44" rx="6" fill="#eef2ff" stroke="#4338ca" stroke-width="1.5" filter="url(#shadow)"/>
<text x="135" y="99" fill="#1e3a8a" font-size="11" font-weight="600" text-anchor="middle">sccsos CLI</text>
<text x="135" y="115" fill="#475569" font-size="8" text-anchor="middle">Click 框架 · 15 子命令</text>

<!-- FastAPI -->
<rect x="250" y="80" width="150" height="44" rx="6" fill="#eef2ff" stroke="#4338ca" stroke-width="1.5" filter="url(#shadow)"/>
<text x="325" y="99" fill="#1e3a8a" font-size="11" font-weight="600" text-anchor="middle">FastAPI Server</text>
<text x="325" y="115" fill="#475569" font-size="8" text-anchor="middle">27 路由 · WebSocket</text>

<!-- WorkflowEngine -->
<rect x="440" y="80" width="160" height="44" rx="6" fill="#eef2ff" stroke="#4338ca" stroke-width="1.5" filter="url(#shadow)"/>
<text x="520" y="99" fill="#1e3a8a" font-size="11" font-weight="600" text-anchor="middle">WorkflowEngine</text>
<text x="520" y="115" fill="#475569" font-size="8" text-anchor="middle">DAG 解析 · 并行执行</text>

<!-- AgentRunner -->
<rect x="640" y="80" width="150" height="44" rx="6" fill="#eef2ff" stroke="#4338ca" stroke-width="1.5" filter="url(#shadow)"/>
<text x="715" y="99" fill="#1e3a8a" font-size="11" font-weight="600" text-anchor="middle">AgentRunner</text>
<text x="715" y="115" fill="#475569" font-size="8" text-anchor="middle">后台线程池</text>

<!-- Arrows between SCCS components -->
<line x1="210" y1="102" x2="250" y2="102" stroke="#1e3a8a" stroke-width="1" marker-end="url(#arr-blue)"/>
<line x1="400" y1="102" x2="440" y2="102" stroke="#1e3a8a" stroke-width="1" marker-end="url(#arr-blue)"/>
<line x1="600" y1="102" x2="640" y2="102" stroke="#1e3a8a" stroke-width="1" marker-end="url(#arr-blue)"/>

<!-- StepExecutor -->
<rect x="180" y="150" width="200" height="44" rx="6" fill="#eef2ff" stroke="#4338ca" stroke-width="1.5" filter="url(#shadow)"/>
<text x="280" y="169" fill="#1e3a8a" font-size="11" font-weight="600" text-anchor="middle">StepExecutor</text>
<text x="280" y="185" fill="#475569" font-size="8" text-anchor="middle">模板渲染 · 条件分支 · 重试</text>

<!-- AgentProcess -->
<rect x="440" y="150" width="180" height="44" rx="6" fill="#eef2ff" stroke="#4338ca" stroke-width="1.5" filter="url(#shadow)"/>
<text x="530" y="169" fill="#1e3a8a" font-size="11" font-weight="600" text-anchor="middle">AgentProcess (常驻)</text>
<text x="530" y="185" fill="#475569" font-size="8" text-anchor="middle">task queue · session · memory</text>

<line x1="280" y1="150" x2="280" y2="130" stroke="#334155" stroke-width="1" stroke-dasharray="4,3"/>
<line x1="530" y1="124" x2="530" y2="150" stroke="#334155" stroke-width="1" stroke-dasharray="4,3"/>

<!-- Context Builders -->
<rect x="60" y="220" width="160" height="40" rx="6" fill="#f8fafc" stroke="#94a3b8" stroke-width="1" filter="url(#shadow)"/>
<text x="140" y="240" fill="#334155" font-size="9" font-weight="600" text-anchor="middle">ContextBuilder</text>
<text x="140" y="254" fill="#64748b" font-size="7" text-anchor="middle">Jinja2 · Knowledge · Memory</text>

<rect x="250" y="220" width="150" height="40" rx="6" fill="#f8fafc" stroke="#94a3b8" stroke-width="1" filter="url(#shadow)"/>
<text x="325" y="240" fill="#334155" font-size="9" font-weight="600" text-anchor="middle">PromptInjectionGuard</text>
<text x="325" y="254" fill="#64748b" font-size="7" text-anchor="middle">多语言 · Unicode · 脱敏</text>

<rect x="440" y="220" width="180" height="40" rx="6" fill="#f8fafc" stroke="#94a3b8" stroke-width="1" filter="url(#shadow)"/>
<text x="530" y="240" fill="#334155" font-size="9" font-weight="600" text-anchor="middle">PersonalityRegistry</text>
<text x="530" y="254" fill="#64748b" font-size="7" text-anchor="middle">System prompt 注入</text>

<line x1="280" y1="194" x2="140" y2="220" stroke="#94a3b8" stroke-width="1" stroke-dasharray="3,3"/>
<line x1="280" y1="194" x2="325" y2="220" stroke="#94a3b8" stroke-width="1" stroke-dasharray="3,3"/>
<line x1="530" y1="194" x2="530" y2="220" stroke="#94a3b8" stroke-width="1" stroke-dasharray="3,3"/>

<!-- Security Layer -->
<rect x="120" y="285" width="620" height="44" rx="8" fill="#fef2f2" stroke="#fecaca" stroke-width="1.5" filter="url(#shadow)"/>
<text x="430" y="304" fill="#7f1d1d" font-size="10" font-weight="700" text-anchor="middle">三层安全防线</text>
<text x="430" y="320" fill="#b91c1c" font-size="8" text-anchor="middle">① PromptInjectionGuard  →  ② PolicyEngine (预算 + 工具ACL)  →  ③ CommandWhitelist (命令沙箱)</text>

<!-- ===== HermesAdapter ===== -->
<rect x="250" y="345" width="340" height="44" rx="8" fill="#dbeafe" stroke="#2563eb" stroke-width="2" filter="url(#shadow)"/>
<text x="420" y="364" fill="#1e40af" font-size="12" font-weight="700" text-anchor="middle">HermesAdapter (ABC 适配层)</text>
<text x="420" y="380" fill="#1d4ed8" font-size="8" text-anchor="middle">HermesSubprocessAdapter  ·  MockHermesAdapter</text>

<!-- Arrow: SCCS Layer → HermesAdapter -->
<line x1="280" y1="285" x2="280" y2="345" stroke="#1e3a8a" stroke-width="1.5" marker-end="url(#arr-blue)"/>
<line x1="530" y1="260" x2="420" y2="345" stroke="#1e3a8a" stroke-width="1.5" marker-end="url(#arr-blue)"/>

<!-- ===== Hermes Agent Components ===== -->

<!-- Hermes CLI -->
<rect x="120" y="425" width="200" height="50" rx="6" fill="#d1fae5" stroke="#059669" stroke-width="1.5" filter="url(#shadow)"/>
<text x="220" y="447" fill="#065f46" font-size="11" font-weight="600" text-anchor="middle">hermes CLI</text>
<text x="220" y="463" fill="#047857" font-size="8" text-anchor="middle">hermes -p sccsos -z "prompt"</text>

<!-- Arrow: Adapter → Hermes CLI -->
<line x1="420" y1="389" x2="420" y2="425" stroke="#059669" stroke-width="1.5" marker-end="url(#arr-emerald)"/>
<line x1="420" y1="425" x2="220" y2="425" stroke="#059669" stroke-width="1.5" marker-end="url(#arr-emerald)"/>

<!-- ReAct -->
<rect x="370" y="425" width="200" height="50" rx="6" fill="#d1fae5" stroke="#059669" stroke-width="1.5" filter="url(#shadow)"/>
<text x="470" y="447" fill="#065f46" font-size="11" font-weight="600" text-anchor="middle">ReAct 推理循环</text>
<text x="470" y="463" fill="#047857" font-size="8" text-anchor="middle">思考 · 行动 · 观察</text>

<!-- Skills Sandbox -->
<rect x="620" y="425" width="170" height="50" rx="6" fill="#d1fae5" stroke="#059669" stroke-width="1.5" filter="url(#shadow)"/>
<text x="705" y="447" fill="#065f46" font-size="11" font-weight="600" text-anchor="middle">技能沙箱</text>
<text x="705" y="463" fill="#047857" font-size="8" text-anchor="middle">工具执行 · 代码沙箱</text>

<line x1="320" y1="450" x2="370" y2="450" stroke="#059669" stroke-width="1" marker-end="url(#arr-emerald)"/>
<line x1="570" y1="450" x2="620" y2="450" stroke="#059669" stroke-width="1" marker-end="url(#arr-emerald)"/>

<!-- Memory -->
<rect x="120" y="500" width="170" height="44" rx="6" fill="#d1fae5" stroke="#059669" stroke-width="1" filter="url(#shadow)"/>
<text x="205" y="520" fill="#065f46" font-size="10" font-weight="600" text-anchor="middle">记忆系统</text>
<text x="205" y="535" fill="#047857" font-size="7" text-anchor="middle">短期 · 会话 · 持久记忆</text>

<!-- Provider -->
<rect x="340" y="500" width="200" height="44" rx="6" fill="#d1fae5" stroke="#059669" stroke-width="1" filter="url(#shadow)"/>
<text x="440" y="520" fill="#065f46" font-size="10" font-weight="600" text-anchor="middle">LLM Provider 适配层</text>
<text x="440" y="535" fill="#047857" font-size="7" text-anchor="middle">DeepSeek · OpenAI · Anthropic</text>

<!-- LLM API -->
<rect x="590" y="500" width="200" height="44" rx="20" fill="#fefce8" stroke="#ca8a04" stroke-width="1.5" filter="url(#shadow)"/>
<text x="690" y="520" fill="#854d0e" font-size="10" font-weight="600" text-anchor="middle">LLM API (外部)</text>
<text x="690" y="535" fill="#a16207" font-size="7" text-anchor="middle">api.deepseek.com</text>

<line x1="290" y1="522" x2="340" y2="522" stroke="#059669" stroke-width="1" marker-end="url(#arr-emerald)"/>
<line x1="540" y1="522" x2="590" y2="522" stroke="#ca8a04" stroke-width="1" marker-end="url(#arr-slate)"/>

<!-- ===== Legend ===== -->
<rect x="30" y="570" width="800" height="55" rx="6" fill="#f8fafc" stroke="#e2e8f0" stroke-width="1"/>
<text x="46" y="588" fill="#475569" font-size="9" font-weight="600">图例</text>

<rect x="80" y="576" width="12" height="12" rx="3" fill="#eef2ff" stroke="#4338ca" stroke-width="1.5"/>
<text x="100" y="586" fill="#475569" font-size="8">SCCS OS 自研组件</text>

<rect x="230" y="576" width="12" height="12" rx="3" fill="#d1fae5" stroke="#059669" stroke-width="1.5"/>
<text x="250" y="586" fill="#475569" font-size="8">Hermes Agent 组件</text>

<rect x="390" y="576" width="12" height="12" rx="3" fill="#fef2f2" stroke="#fecaca" stroke-width="1.5"/>
<text x="410" y="586" fill="#475569" font-size="8">安全防线</text>

<rect x="510" y="576" width="12" height="12" rx="6" fill="#fefce8" stroke="#ca8a04" stroke-width="1.5"/>
<text x="530" y="586" fill="#475569" font-size="8">外部系统 (LLM API)</text>

<rect x="650" y="576" width="12" height="12" rx="3" fill="#f8fafc" stroke="#94a3b8" stroke-width="1"/>
<text x="670" y="586" fill="#475569" font-size="8">上下文工具</text>

<line x1="80" y1="602" x2="130" y2="602" stroke="#1e3a8a" stroke-width="1.5" marker-end="url(#arr-blue)"/>
<text x="140" y="606" fill="#475569" font-size="8">调用流</text>

<line x1="230" y1="602" x2="280" y2="602" stroke="#94a3b8" stroke-width="1" stroke-dasharray="3,3"/>
<text x="290" y="606" fill="#475569" font-size="8">数据注入</text>

<!-- Footer -->
<text x="430" y="635" fill="#94a3b8" font-size="7" text-anchor="middle">创新研究院 李锋 · SCCS OS v0.14.2 · 2026-07</text>
</svg>
